<svg width="271" height="59" viewBox="0 0 271 59" fill="none" xmlns="http://www.w3.org/2000/svg">
<path d="M147.407 19.4329H153.468V36.1744C153.468 44.6724 148.752 49.5465 140.536 49.5465C132.406 49.5465 127.733 44.7571 127.733 36.4076V19.4541H133.793V36.2168C133.793 41.1757 136.247 43.8247 140.622 43.8247C144.996 43.8247 147.407 41.2393 147.407 36.4287V19.4329ZM113.266 31.3851H99.5665V19.4329H93.5063V49.1015H99.5665V37.0433H113.244V49.1015H119.305V19.4329H113.244V31.3851H113.266ZM265.025 19.4329V49.0591H271V19.4329H265.025ZM241.233 36.3228H252.265V30.9189H241.233V24.8368H257.237V19.4541H235.258V49.0803H257.813V43.6763H241.233V36.3228ZM217.462 39.8194L210.676 19.4117H205.726L198.94 39.8194L192.346 19.4329H185.902L196.315 49.0803H201.33L208.115 29.605L214.901 49.0803H219.958L230.35 19.4329H224.055L217.462 39.8194ZM175.126 19.6024L188.164 49.0803H181.805L179.116 42.9134H165.438L165.246 43.3373L162.728 49.0803H156.54L169.706 19.4329H174.998L175.126 19.6024ZM176.577 36.8526L172.267 26.9136L167.978 36.8526L167.679 37.5307H176.855L176.577 36.8526Z" fill="#24272A"/>
<path d="M33.8438 45.9439C33.9291 45.8803 33.9505 45.7531 33.9078 45.6472C28.0239 33.0875 20.6835 21.253 12.0358 10.384C12.0358 10.384 5.16483 16.8687 5.65562 23.3746C5.77058 24.8745 6.18218 26.3372 6.86688 27.679C7.55157 29.0208 8.49592 30.2154 9.64592 31.1944C15.642 37.0009 30.1522 44.3333 33.5237 46.0075C33.6304 46.0498 33.7584 46.0286 33.8438 45.9439ZM31.6032 50.9028C31.5606 50.7756 31.4325 50.6908 31.2832 50.6908L7.12797 51.5173C9.75261 56.1583 14.1697 59.7609 18.7575 58.659C21.9369 57.8749 29.1066 52.8948 31.4752 51.1994C31.6672 51.0511 31.6032 50.924 31.6032 50.9028ZM31.966 48.7624C32.094 48.5717 31.8806 48.4021 31.8806 48.4021C21.2754 41.2817 0.705084 30.3467 0.705084 30.3467C0.0232736 32.4221 -0.167459 34.6258 0.147711 36.7863C0.46288 38.9468 1.27546 41.0061 2.5223 42.8041C3.76914 44.602 5.41666 46.0902 7.3368 47.153C9.25694 48.2158 11.398 48.8245 13.5935 48.9319C13.9563 48.9955 27.9543 48.9319 31.7099 48.9107C31.8166 48.8895 31.902 48.8472 31.966 48.7624ZM33.5664 0.0211918C32.5208 0.105959 29.6828 0.762906 29.6828 0.762906C23.2812 2.39468 21.7662 8.18004 21.7662 8.18004C20.5926 11.8038 21.7875 15.8091 21.7875 15.8091C23.9214 25.2183 34.4199 40.7095 36.6818 43.9518C36.8312 44.1214 36.9592 44.0578 36.9592 44.0578C37.0872 44.0154 37.1939 43.9095 37.1939 43.7611C40.6934 9.17606 33.5664 0.0211918 33.5664 0.0211918ZM41.5683 44.0154C41.6963 44.0578 41.8457 44.0154 41.9097 43.8883C44.2356 40.5611 54.6701 25.1547 56.804 15.7879C56.804 15.7879 57.9563 11.2529 56.8467 8.15885C56.8467 8.15885 55.2676 2.28872 48.8661 0.741714C48.8661 0.741714 47.031 0.275494 45.0678 0C45.0678 0 37.8981 9.15487 41.3976 43.7399C41.3763 43.8671 41.4616 43.973 41.5683 44.0154ZM47.287 50.712C47.2302 50.7234 47.1762 50.7462 47.1285 50.779C47.0808 50.8118 47.0404 50.8539 47.0096 50.9028C46.9883 51.0299 47.0096 51.1359 47.095 51.2206C49.3995 52.8736 56.4199 57.7477 59.7914 58.6802C59.7914 58.6802 66.0436 60.7993 71.4635 51.5385L47.287 50.712ZM77.9078 30.3043C77.9078 30.3043 57.3801 41.2605 46.7536 48.3809C46.6469 48.4657 46.5829 48.5928 46.6255 48.72C46.6255 48.72 46.7322 48.9107 46.8816 48.9107C50.6798 48.9107 65.062 48.9319 65.4461 48.8683C66.8758 48.7624 68.2841 48.4445 69.6071 47.9147C69.6071 47.9147 74.7283 46.3041 77.3743 40.5188C77.3743 40.5188 79.7429 35.8142 77.9078 30.3043ZM44.8118 45.9439C44.8971 46.0075 45.0251 46.0286 45.1318 45.9651C48.5887 44.2485 62.9922 36.9797 68.9456 31.1944C68.9456 31.1944 72.7225 28.1851 72.9146 23.3322C73.3413 16.6144 66.5344 10.384 66.5344 10.384C66.5344 10.384 53.9446 25.5361 44.7051 45.5624C44.6902 45.6298 44.6922 45.6998 44.7108 45.7663C44.7294 45.8328 44.7641 45.8937 44.8118 45.9439Z" fill="#CE0E2D"/>
</svg>
